  0
SECTION
  2
HEADER
  9
$ACADVER
  1
AC1012
  9
$MEASUREMENT
  70
1
  9
$INSUNITS
  70
4
  9
$DIMLFAC
  40
1
  9
$INSBASE
  10
0.0
  20
0.0
  30
0.0
  9
$EXTMIN
  10
-238.7555
  20
684.0825
  9
$EXTMAX
  10
142.2445
  20
1166.6825
  9
$LIMMIN
  10
-238.7555
  20
684.0825
  9
$LIMMAX
  10
142.2445
  20
1166.6825
  9
$CLAYER
  8
0
  0
ENDSEC
  0
SECTION
  2
TABLES
  0
TABLE
  2
LTYPE
  70
2
  0
LTYPE
  2
CONTINUOUS
  70
65
  3
Solid line
  72
65
  73
0
  40
0
  0
LTYPE
  2
DASHED
  70
65
  3
 _ _ _ _ _ _ _ _ _ _ _ _ _ _ _ _ _ _ _ _ _ _
  72
65
  73
2
  40
2
  49
1
  49
-1
  0
ENDTAB
  0
TABLE
  2
LAYER
  70
1
  0
LAYER
  2
0
  70
0
  62
7
  6
CONTINUOUS
  0
ENDTAB
  0
ENDSEC
  0
SECTION
  2
BLOCKS
  0
ENDSEC
  0
SECTION
  2
ENTITIES
  0
CIRCLE
  8
0
  10
-223.7555
  20
1160.3325
  30
0
  40
3.81
  0
CIRCLE
  8
0
  10
-223.7555
  20
691.0825
  30
0
  40
3.81
  0
CIRCLE
  8
0
  10
127.2445
  20
1160.3325
  30
0
  40
3.81
  0
CIRCLE
  8
0
  10
127.2445
  20
690.4325
  30
0
  40
3.81
  0
CIRCLE
  8
0
  10
-223.7555
  20
919.6825
  30
0
  40
3.81
  0
CIRCLE
  8
0
  10
127.2445
  20
919.0325
  30
0
  40
3.81
  0
CIRCLE
  8
0
  10
-203.8305
  20
825.0525
  30
0
  40
3.81
  0
CIRCLE
  8
0
  10
-102.2305
  20
825.0525
  30
0
  40
3.81
  0
CIRCLE
  8
0
  10
5.7195
  20
825.0525
  30
0
  40
3.81
  0
CIRCLE
  8
0
  10
107.3195
  20
825.0525
  30
0
  40
3.81
  0
CIRCLE
  8
0
  10
-203.8305
  20
728.5325
  30
0
  40
3.81
  0
CIRCLE
  8
0
  10
-102.2305
  20
728.5325
  30
0
  40
3.81
  0
CIRCLE
  8
0
  10
5.7195
  20
728.5325
  30
0
  40
3.81
  0
CIRCLE
  8
0
  10
107.3195
  20
728.5325
  30
0
  40
3.81
  0
LINE
  8
0
  10
-238.7555
  20
1166.6825
  30
0
  11
142.2445
  21
1166.6825
  31
0
  0
LINE
  8
0
  10
142.2445
  20
1166.6825
  30
0
  11
142.2445
  21
684.0825
  31
0
  0
LINE
  8
0
  10
142.2445
  20
684.0825
  30
0
  11
-238.7555
  21
684.0825
  31
0
  0
LINE
  8
0
  10
-238.7555
  20
684.0825
  30
0
  11
-238.7555
  21
1166.6825
  31
0
  0
LINE
  8
0
  10
-226.0555
  20
812.3525
  30
0
  11
-181.6055
  21
812.3525
  31
0
  0
LINE
  8
0
  10
-181.6055
  20
812.3525
  30
0
  11
-181.6055
  21
741.2325
  31
0
  0
LINE
  8
0
  10
-181.6055
  20
741.2325
  30
0
  11
-226.0555
  21
741.2325
  31
0
  0
LINE
  8
0
  10
-226.0555
  20
741.2325
  30
0
  11
-226.0555
  21
812.3525
  31
0
  0
LINE
  8
0
  10
-124.4555
  20
812.3525
  30
0
  11
-80.0055
  21
812.3525
  31
0
  0
LINE
  8
0
  10
-80.0055
  20
812.3525
  30
0
  11
-80.0055
  21
741.2325
  31
0
  0
LINE
  8
0
  10
-80.0055
  20
741.2325
  30
0
  11
-124.4555
  21
741.2325
  31
0
  0
LINE
  8
0
  10
-124.4555
  20
741.2325
  30
0
  11
-124.4555
  21
812.3525
  31
0
  0
LINE
  8
0
  10
-16.5055
  20
812.3525
  30
0
  11
27.9445
  21
812.3525
  31
0
  0
LINE
  8
0
  10
27.9445
  20
812.3525
  30
0
  11
27.9445
  21
741.2325
  31
0
  0
LINE
  8
0
  10
27.9445
  20
741.2325
  30
0
  11
-16.5055
  21
741.2325
  31
0
  0
LINE
  8
0
  10
-16.5055
  20
741.2325
  30
0
  11
-16.5055
  21
812.3525
  31
0
  0
LINE
  8
0
  10
85.0945
  20
812.3525
  30
0
  11
129.5445
  21
812.3525
  31
0
  0
LINE
  8
0
  10
129.5445
  20
812.3525
  30
0
  11
129.5445
  21
741.2325
  31
0
  0
LINE
  8
0
  10
129.5445
  20
741.2325
  30
0
  11
85.0945
  21
741.2325
  31
0
  0
LINE
  8
0
  10
85.0945
  20
741.2325
  30
0
  11
85.0945
  21
812.3525
  31
0
  0
ENDSEC
  0
EOF
